<svg xmlns="http://www.w3.org/2000/svg" width="64" height="64" viewBox="0 0 64 64">
  <g id="downlode" transform="translate(-1043 -3464)">
    <circle id="Ellipse_5" data-name="Ellipse 5" cx="32" cy="32" r="32" transform="translate(1043 3464)" fill="#ff5f21"/>
    <g id="download" transform="translate(1061 3482)">
      <g id="Group_10" data-name="Group 10">
        <g id="Group_9" data-name="Group 9">
          <path id="Path_2838" data-name="Path 2838" d="M25.622,1.478A5.013,5.013,0,0,0,22.054,0H5.046A5.052,5.052,0,0,0,0,5.046V22.054A5.052,5.052,0,0,0,5.046,27.1H22.054A5.052,5.052,0,0,0,27.1,22.054V5.046A5.013,5.013,0,0,0,25.622,1.478Zm-.11,20.576a3.462,3.462,0,0,1-3.458,3.458H5.046a3.462,3.462,0,0,1-3.458-3.458V5.046A3.462,3.462,0,0,1,5.046,1.588H22.054a3.458,3.458,0,0,1,3.458,3.458Z" fill="#fff"/>
        </g>
      </g>
      <g id="Group_12" data-name="Group 12" transform="translate(8.547 5.102)">
        <g id="Group_11" data-name="Group 11">
          <path id="Path_2839" data-name="Path 2839" d="M171.246,102.809a.794.794,0,0,0-1.123,0l-2.854,2.854v-8.47a.794.794,0,0,0-1.588,0v8.47l-2.854-2.854a.794.794,0,1,0-1.123,1.123l4.209,4.209a.794.794,0,0,0,1.123,0l4.209-4.209A.794.794,0,0,0,171.246,102.809Z" transform="translate(-161.471 -96.4)" fill="#fff"/>
        </g>
      </g>
      <g id="Group_14" data-name="Group 14" transform="translate(5.103 20.41)">
        <g id="Group_13" data-name="Group 13">
          <path id="Path_2840" data-name="Path 2840" d="M112.5,385.6H97.2a.794.794,0,1,0,0,1.588H112.5a.794.794,0,1,0,0-1.588Z" transform="translate(-96.402 -385.601)" fill="#fff"/>
        </g>
      </g>
    </g>
  </g>
</svg>
