<svg xmlns="http://www.w3.org/2000/svg" width="64" height="64" viewBox="0 0 64 64">
  <g id="message" transform="translate(-1043 -3178)">
    <circle id="Ellipse_3" data-name="Ellipse 3" cx="32" cy="32" r="32" transform="translate(1043 3178)" fill="#ff5f21"/>
    <g id="chat" transform="translate(1061 3196)">
      <g id="Group_6" data-name="Group 6">
        <g id="Group_5" data-name="Group 5">
          <path id="Path_2836" data-name="Path 2836" d="M18.632,0H3.388A3.391,3.391,0,0,0,0,3.388V20.325a.846.846,0,0,0,.488.767.859.859,0,0,0,.359.08.847.847,0,0,0,.542-.2l4.846-4.038h12.4a3.391,3.391,0,0,0,3.388-3.388V3.388A3.391,3.391,0,0,0,18.632,0Zm1.694,13.55a1.7,1.7,0,0,1-1.694,1.694H5.928a.846.846,0,0,0-.542.2L1.694,18.518V3.388A1.7,1.7,0,0,1,3.388,1.694H18.632a1.7,1.7,0,0,1,1.694,1.694Z" fill="#fff"/>
        </g>
      </g>
      <g id="Group_8" data-name="Group 8" transform="translate(6.775 6.775)">
        <g id="Group_7" data-name="Group 7">
          <path id="Path_2837" data-name="Path 2837" d="M144.938,128a.847.847,0,1,0,0,1.694,1.7,1.7,0,0,1,1.694,1.694v14.328l-2.859-2.287a.853.853,0,0,0-.528-.185H131.388a1.7,1.7,0,0,1-1.694-1.694V140.7a.847.847,0,1,0-1.694,0v.847a3.391,3.391,0,0,0,3.388,3.388h11.558l4,3.2a.848.848,0,0,0,1.377-.662V131.388A3.391,3.391,0,0,0,144.938,128Z" transform="translate(-128 -128)" fill="#fff"/>
        </g>
      </g>
    </g>
  </g>
</svg>
