<svg id="price1" xmlns="http://www.w3.org/2000/svg" xmlns:xlink="http://www.w3.org/1999/xlink" width="48.298" height="48.298" viewBox="0 0 48.298 48.298">
  <defs>
    <linearGradient id="linear-gradient" x1="0.5" x2="0.5" y2="1" gradientUnits="objectBoundingBox">
      <stop offset="0" stop-color="#007aff"/>
      <stop offset="1" stop-color="#0ccbff"/>
    </linearGradient>
  </defs>
  <path id="Path_11" data-name="Path 11" d="M89.682,282.649a3.019,3.019,0,1,1-4.269,0,3.019,3.019,0,0,1,4.269,0" transform="translate(-75.473 -251.578)" fill="url(#linear-gradient)"/>
  <path id="Path_12" data-name="Path 12" d="M315.1,282.649a3.019,3.019,0,1,1-4.269,0,3.019,3.019,0,0,1,4.269,0" transform="translate(-276.737 -251.578)" fill="url(#linear-gradient)"/>
  <path id="Path_13" data-name="Path 13" d="M45,74.655,41.278,59.781a4.521,4.521,0,0,0-4.392-3.428h-3.68v3.019h3.68a1.509,1.509,0,0,1,1.465,1.142l3.487,13.951H6.46L9.948,60.515a1.509,1.509,0,0,1,1.465-1.144h3.68V56.353h-3.68a4.521,4.521,0,0,0-4.392,3.43L3.3,74.655A4.521,4.521,0,0,0,0,78.993V91.068a1.508,1.508,0,0,0,1.509,1.509H3.019V95.6a3.023,3.023,0,0,0,3.019,3.019H9.056A3.023,3.023,0,0,0,12.075,95.6V92.577H36.224V95.6a3.023,3.023,0,0,0,3.019,3.019h3.019A3.023,3.023,0,0,0,45.28,95.6V92.577h1.509A1.508,1.508,0,0,0,48.3,91.068V78.993A4.52,4.52,0,0,0,45,74.655ZM9.056,95.6H6.037V92.577H9.056V95.6Zm33.205,0H39.243V92.577h3.019Zm3.019-6.037H3.019V78.993a1.51,1.51,0,0,1,1.509-1.509H43.77a1.51,1.51,0,0,1,1.509,1.509Z" transform="translate(0 -50.316)" fill="url(#linear-gradient)"/>
  <path id="path-1_93_" d="M228.431,9.056a3.019,3.019,0,0,0,3.019-3.019c0-1.667-3.019-6.037-3.019-6.037s-3.019,4.37-3.019,6.037A3.019,3.019,0,0,0,228.431,9.056Z" transform="translate(-200.406)" fill="url(#linear-gradient)"/>
  <path id="path-1_92_" d="M172.078,65.409A3.019,3.019,0,0,0,175.1,62.39c0-1.667-3.019-6.037-3.019-6.037s-3.019,4.37-3.019,6.037A3.019,3.019,0,0,0,172.078,65.409Z" transform="translate(-150.304 -50.101)" fill="url(#linear-gradient)"/>
</svg>
