<svg xmlns="http://www.w3.org/2000/svg" width="126" height="108.852" viewBox="0 0 126 108.852">
  <g id="quotes-sign" transform="translate(0 -34.571)" opacity="0.15">
    <g id="Group_169" data-name="Group 169" transform="translate(0 34.571)">
      <path id="Path_298" data-name="Path 298" d="M.027,113.429A30.073,30.073,0,1,0,20.306,85.075c6.75-38.712,36.938-63.677,8.954-43.13C-1.77,64.729-.006,112.513.028,113.388.028,113.4.027,113.414.027,113.429Z" transform="translate(0 -34.571)" fill="#fff"/>
      <path id="Path_299" data-name="Path 299" d="M266.088,113.429a30.073,30.073,0,1,0,20.279-28.354c6.75-38.712,36.938-63.677,8.954-43.13-31.03,22.784-29.267,70.568-29.232,71.444C266.089,113.4,266.088,113.414,266.088,113.429Z" transform="translate(-200.075 -34.571)" fill="#fff"/>
    </g>
  </g>
</svg>
