<svg xmlns="http://www.w3.org/2000/svg" xmlns:xlink="http://www.w3.org/1999/xlink" width="62" height="62" viewBox="0 0 62 62">
  <defs>
    <linearGradient id="linear-gradient" x1="0.5" x2="0.5" y2="1" gradientUnits="objectBoundingBox">
      <stop offset="0" stop-color="#007aff"/>
      <stop offset="1" stop-color="#0ccbff"/>
    </linearGradient>
  </defs>
  <g id="services4" transform="translate(-1 -1)">
    <path id="Path_324" data-name="Path 324" d="M60.67,18,55.965,6.573A8.973,8.973,0,0,0,47.643,1H31.353A8.97,8.97,0,0,0,23.8,5.111l-8.432,13.03-13.638,3.9A1,1,0,0,0,1,23V36a1,1,0,0,0,1,1H7.059a9,9,0,0,0,17.882,0H39V35H24.941A9,9,0,0,0,7.059,35H3V29H6a1,1,0,0,0,1-1V22.611l9.274-2.649a1,1,0,0,0,.565-.419L25.475,6.2A6.977,6.977,0,0,1,31.353,3h16.29a6.976,6.976,0,0,1,6.473,4.335l4.96,12.046A1,1,0,0,0,60,20h3V18ZM16,29a7,7,0,1,1-7,7A7.009,7.009,0,0,1,16,29ZM5,27H3V23.754l2-.571Z" fill="url(#linear-gradient)"/>
    <path id="Path_325" data-name="Path 325" d="M16,41a5,5,0,1,0-5-5A5.006,5.006,0,0,0,16,41Zm0-8a3,3,0,1,1-3,3A3,3,0,0,1,16,33Z" fill="url(#linear-gradient)"/>
    <path id="Path_326" data-name="Path 326" d="M51.436,6.846A2.992,2.992,0,0,0,48.667,5H31.07a2.993,2.993,0,0,0-2.5,1.336L21.168,17.445A1,1,0,0,0,22,19H55a1,1,0,0,0,.923-1.384Zm-21.2.6A1,1,0,0,1,31.07,7H38V17H23.868ZM40,17V7h8.667a1,1,0,0,1,.923.615L53.5,17Z" fill="url(#linear-gradient)"/>
    <path id="Path_327" data-name="Path 327" d="M36,21h4v2H36Z" fill="url(#linear-gradient)"/>
    <path id="Path_328" data-name="Path 328" d="M52,21h4v2H52Z" fill="url(#linear-gradient)"/>
    <path id="Path_329" data-name="Path 329" d="M24,56a4,4,0,0,1-4-4,1,1,0,0,0-2,0,4,4,0,0,1-4,4,1,1,0,0,0,0,2,4,4,0,0,1,4,4,1,1,0,0,0,2,0,4,4,0,0,1,4-4,1,1,0,0,0,0-2Zm-5,2.687A6.062,6.062,0,0,0,17.313,57,6.062,6.062,0,0,0,19,55.313,6.062,6.062,0,0,0,20.687,57,6.049,6.049,0,0,0,19,58.687Z" fill="url(#linear-gradient)"/>
    <path id="Path_330" data-name="Path 330" d="M12,49a4,4,0,0,1-4-4,1,1,0,0,0-2,0,4,4,0,0,1-4,4,1,1,0,0,0,0,2,4,4,0,0,1,4,4,1,1,0,0,0,2,0,4,4,0,0,1,4-4,1,1,0,0,0,0-2ZM7,51.687A6.049,6.049,0,0,0,5.313,50,6.049,6.049,0,0,0,7,48.313,6.049,6.049,0,0,0,8.687,50,6.049,6.049,0,0,0,7,51.687Z" fill="url(#linear-gradient)"/>
    <path id="Path_331" data-name="Path 331" d="M2,8a4,4,0,0,1,4,4,1,1,0,0,0,2,0,4,4,0,0,1,4-4,1,1,0,0,0,0-2A4,4,0,0,1,8,2,1,1,0,0,0,6,2,4,4,0,0,1,2,6,1,1,0,0,0,2,8ZM7,5.313A6.049,6.049,0,0,0,8.687,7,6.049,6.049,0,0,0,7,8.687,6.049,6.049,0,0,0,5.313,7,6.049,6.049,0,0,0,7,5.313Z" fill="url(#linear-gradient)"/>
    <path id="Path_332" data-name="Path 332" d="M62.53,38.152,55,33.446V26a1,1,0,0,0-1-1H48a1,1,0,0,0-1,1v7.446l-7.53,4.706A1,1,0,0,0,39,39v6a1,1,0,0,0,.293.707L41,47.414v6.172l-1.707,1.707A1,1,0,0,0,39,56v6a1,1,0,0,0,1,1H62a1,1,0,0,0,1-1V56a1,1,0,0,0-.293-.707L61,53.586V47.414l1.707-1.707A1,1,0,0,0,63,45V39A1,1,0,0,0,62.53,38.152ZM48.287,35h5.426l6.4,4H41.887ZM49,27h4v6H49ZM59.293,46.293A1,1,0,0,0,59,47v7a1,1,0,0,0,.293.707L61,56.414V61H41V56.414l1.707-1.707A1,1,0,0,0,43,54V47a1,1,0,0,0-.293-.707L41,44.586V41H61v3.586Z" fill="url(#linear-gradient)"/>
    <path id="Path_333" data-name="Path 333" d="M56,48a4,4,0,0,1-4-4,1,1,0,0,0-2,0,4,4,0,0,1-4,4,1,1,0,0,0,0,2,4,4,0,0,1,4,4,1,1,0,0,0,2,0,4,4,0,0,1,4-4,1,1,0,0,0,0-2Zm-5,2.687A6.062,6.062,0,0,0,49.313,49,6.062,6.062,0,0,0,51,47.313,6.062,6.062,0,0,0,52.687,49,6.049,6.049,0,0,0,51,50.687Z" fill="url(#linear-gradient)"/>
  </g>
</svg>
