<svg xmlns="http://www.w3.org/2000/svg" xmlns:xlink="http://www.w3.org/1999/xlink" width="62" height="62" viewBox="0 0 62 62">
  <defs>
    <linearGradient id="linear-gradient" x1="0.5" x2="0.5" y2="1" gradientUnits="objectBoundingBox">
      <stop offset="0" stop-color="#007aff"/>
      <stop offset="1" stop-color="#0ccbff"/>
    </linearGradient>
  </defs>
  <g id="services3" transform="translate(-1 -1)">
    <path id="Path_312" data-name="Path 312" d="M1,61v2H63V61H1Z" fill="url(#linear-gradient)"/>
    <path id="Path_313" data-name="Path 313" d="M47,49a4,4,0,1,0,4,4A4,4,0,0,0,47,49Zm0,6a2,2,0,1,1,2-2A2,2,0,0,1,47,55Z" fill="url(#linear-gradient)"/>
    <path id="Path_314" data-name="Path 314" d="M17,49a4,4,0,1,0,4,4A4,4,0,0,0,17,49Zm0,6a2,2,0,1,1,2-2A2,2,0,0,1,17,55Z" fill="url(#linear-gradient)"/>
    <path id="Path_315" data-name="Path 315" d="M58.257,38.176,48.569,36.1l-6.835-8.886a9.991,9.991,0,0,0-8.614-3.88l-19.9,1.372a9.96,9.96,0,0,0-7.5,4.242l-2,2.863A14.93,14.93,0,0,0,1,40.413V51a3,3,0,0,0,3,3H9.069a7.993,7.993,0,0,0,15.862,0H39.07a7.993,7.993,0,0,0,15.862,0H60a3,3,0,0,0,3-3V44.042A6.03,6.03,0,0,0,58.257,38.176ZM3,43H5v2.586l-2,2ZM17,59a6,6,0,1,1,6-6A6.006,6.006,0,0,1,17,59Zm30,0a6,6,0,1,1,6-6A6.006,6.006,0,0,1,47,59Zm13-7H54.931a7.993,7.993,0,0,0-15.862,0H24.931A7.993,7.993,0,0,0,9.069,52H4a1,1,0,0,1-1-1V50a1,1,0,0,0,.707-.293l3-3A1,1,0,0,0,7,46V42a1,1,0,0,0-1-1H3v-.587a12.932,12.932,0,0,1,2.35-7.455l2-2.863a7.966,7.966,0,0,1,6-3.393l19.9-1.372a7.958,7.958,0,0,1,6.892,3.1l7.059,9.177a1,1,0,0,0,.583.368l10.048,2.153A4.009,4.009,0,0,1,60.425,42H58a1,1,0,0,0-1,1v4a1,1,0,0,0,1,1h3v3a1,1,0,0,1-1,1Zm1-7.958V46H59V44h2C61,44.014,61,44.028,61,44.042Z" fill="url(#linear-gradient)"/>
    <path id="Path_316" data-name="Path 316" d="M38.46,29.771a6.022,6.022,0,0,0-5.394-2.54L13.427,28.8a6.023,6.023,0,0,0-4.61,2.8L5.152,37.47A1,1,0,0,0,6,39H43a1,1,0,0,0,.819-1.573ZM28,29.644V37H18V30.444Zm-17.485,3.02A4.009,4.009,0,0,1,13.588,30.8L16,30.6V37H7.8ZM30,37V29.484l3.227-.258a4.011,4.011,0,0,1,3.6,1.692L41.08,37Z" fill="url(#linear-gradient)"/>
    <path id="Path_317" data-name="Path 317" d="M28,41h4v2H28Z" fill="url(#linear-gradient)"/>
    <path id="Path_318" data-name="Path 318" d="M16,41h4v2H16Z" fill="url(#linear-gradient)"/>
    <path id="Path_319" data-name="Path 319" d="M40,15a4,4,0,0,1,4,4,1,1,0,0,0,2,0,4,4,0,0,1,4-4,1,1,0,0,0,0-2,4,4,0,0,1-4-4,1,1,0,0,0-2,0,4,4,0,0,1-4,4,1,1,0,0,0,0,2Zm5-2.687A6.062,6.062,0,0,0,46.687,14,6.062,6.062,0,0,0,45,15.687,6.062,6.062,0,0,0,43.313,14,6.049,6.049,0,0,0,45,12.313Z" fill="url(#linear-gradient)"/>
    <path id="Path_320" data-name="Path 320" d="M52,8a4,4,0,0,1,4,4,1,1,0,0,0,2,0,4,4,0,0,1,4-4,1,1,0,0,0,0-2,4,4,0,0,1-4-4,1,1,0,0,0-2,0,4,4,0,0,1-4,4,1,1,0,0,0,0,2Zm5-2.687A6.049,6.049,0,0,0,58.687,7,6.049,6.049,0,0,0,57,8.687,6.049,6.049,0,0,0,55.313,7,6.049,6.049,0,0,0,57,5.313Z" fill="url(#linear-gradient)"/>
    <path id="Path_321" data-name="Path 321" d="M2,15a4,4,0,0,1,4,4,1,1,0,0,0,2,0,4,4,0,0,1,4-4,1,1,0,0,0,0-2A4,4,0,0,1,8,9,1,1,0,0,0,6,9a4,4,0,0,1-4,4,1,1,0,0,0,0,2Zm5-2.687A6.049,6.049,0,0,0,8.687,14,6.049,6.049,0,0,0,7,15.687,6.049,6.049,0,0,0,5.313,14,6.049,6.049,0,0,0,7,12.313Z" fill="url(#linear-gradient)"/>
    <path id="Path_322" data-name="Path 322" d="M14,8a4,4,0,0,1,4,4,1,1,0,0,0,2,0,4,4,0,0,1,4-4,1,1,0,0,0,0-2,4,4,0,0,1-4-4,1,1,0,0,0-2,0,4,4,0,0,1-4,4,1,1,0,0,0,0,2Zm5-2.687A6.049,6.049,0,0,0,20.687,7,6.049,6.049,0,0,0,19,8.687,6.049,6.049,0,0,0,17.313,7,6.049,6.049,0,0,0,19,5.313Z" fill="url(#linear-gradient)"/>
  </g>
</svg>
