<svg xmlns="http://www.w3.org/2000/svg" xmlns:xlink="http://www.w3.org/1999/xlink" width="62" height="62" viewBox="0 0 62 62">
  <defs>
    <linearGradient id="linear-gradient" x1="0.5" x2="0.5" y2="1" gradientUnits="objectBoundingBox">
      <stop offset="0" stop-color="#007aff"/>
      <stop offset="1" stop-color="#0ccbff"/>
    </linearGradient>
  </defs>
  <g id="services1" transform="translate(-1 -1)">
    <path id="Path_301" data-name="Path 301" d="M60,20h3V18H60.67L55.965,6.573A8.973,8.973,0,0,0,47.643,1H31.353A8.971,8.971,0,0,0,23.8,5.11L15.364,18.141l-13.638,3.9A1,1,0,0,0,1,23V36a1,1,0,0,0,1,1H7.059a9,9,0,0,0,17.882,0h3.191l.54.811a13.862,13.862,0,0,1,0,15.378l-.73,1.1a5.605,5.605,0,0,0,7.772,7.774l.68-.453A15.545,15.545,0,0,1,40,59.839V63h2V59a1,1,0,0,0-.445-.832L36,54.465V51a1,1,0,0,1,2,0v3h2V41a1,1,0,0,1,2,0v7h2V39a1,1,0,0,1,2,0v9h2V41a1,1,0,0,1,2,0v7h2V45a1,1,0,0,1,2,0V55.586l-1.707,1.707A1,1,0,0,0,52,58v5h2V61.868l.285.19a5.605,5.605,0,0,0,7.774-7.772l-.73-1.1a13.861,13.861,0,0,1,0-15.379l.73-1.1a5.605,5.605,0,0,0-7.772-7.774l-.68.453a15.514,15.514,0,0,1-17.211,0l-.68-.453A5.583,5.583,0,0,0,27.188,35H24.941A9,9,0,0,0,7.059,35H3V29H6a1,1,0,0,0,1-1V22.611l9.274-2.65a1,1,0,0,0,.565-.418L25.475,6.2A6.976,6.976,0,0,1,31.353,3h16.29a6.978,6.978,0,0,1,6.473,4.335l4.96,12.046A1,1,0,0,0,60,20ZM32.6,30a3.6,3.6,0,0,1,2,.6l.68.453a17.514,17.514,0,0,0,19.43,0l.68-.453a3.605,3.605,0,0,1,5,5l-.73,1.1a15.861,15.861,0,0,0,0,17.6l.73,1.1a3.605,3.605,0,0,1-5,5l-.68-.453c-.233-.155-.476-.292-.715-.435V58.415l1.707-1.707A1,1,0,0,0,56,56V45a3,3,0,0,0-3-3,2.966,2.966,0,0,0-1,.184V41a2.99,2.99,0,0,0-4.116-2.78,2.983,2.983,0,0,0-5.768,0A2.99,2.99,0,0,0,38,41v7.184A2.966,2.966,0,0,0,37,48a3,3,0,0,0-3,3v4a1,1,0,0,0,.445.832l3.8,2.535a17.525,17.525,0,0,0-2.963,1.574l-.68.453a3.605,3.605,0,0,1-5-5l.73-1.1a15.861,15.861,0,0,0,0-17.6l-.73-1.1a3.606,3.606,0,0,1,3-5.6ZM16,29a7,7,0,1,1-7,7A7.008,7.008,0,0,1,16,29ZM5,27H3V23.754l2-.571Z" fill="url(#linear-gradient)"/>
    <path id="Path_302" data-name="Path 302" d="M16,41a5,5,0,1,0-5-5A5.006,5.006,0,0,0,16,41Zm0-8a3,3,0,1,1-3,3A3,3,0,0,1,16,33Z" fill="url(#linear-gradient)"/>
    <path id="Path_303" data-name="Path 303" d="M55.824,19.566a1,1,0,0,0,.109-.925L51.92,8.205A5.032,5.032,0,0,0,47.253,5H32.235a4.971,4.971,0,0,0-4.259,2.38l-6.828,11.1A1,1,0,0,0,22,20H55A1,1,0,0,0,55.824,19.566ZM29.68,8.428A2.981,2.981,0,0,1,32.235,7H38V18H23.789ZM40,18V7h7.253a3.02,3.02,0,0,1,2.8,1.923L53.544,18Z" fill="url(#linear-gradient)"/>
    <path id="Path_304" data-name="Path 304" d="M36,22h4v2H36Z" fill="url(#linear-gradient)"/>
    <path id="Path_305" data-name="Path 305" d="M52,22h4v2H52Z" fill="url(#linear-gradient)"/>
    <path id="Path_306" data-name="Path 306" d="M24,56a4,4,0,0,1-4-4,1,1,0,0,0-2,0,4,4,0,0,1-4,4,1,1,0,0,0,0,2,4,4,0,0,1,4,4,1,1,0,0,0,2,0,4,4,0,0,1,4-4,1,1,0,0,0,0-2Zm-5,2.687A6.062,6.062,0,0,0,17.313,57,6.062,6.062,0,0,0,19,55.313,6.062,6.062,0,0,0,20.687,57,6.049,6.049,0,0,0,19,58.687Z" fill="url(#linear-gradient)"/>
    <path id="Path_307" data-name="Path 307" d="M12,49a4,4,0,0,1-4-4,1,1,0,0,0-2,0,4,4,0,0,1-4,4,1,1,0,0,0,0,2,4,4,0,0,1,4,4,1,1,0,0,0,2,0,4,4,0,0,1,4-4,1,1,0,0,0,0-2ZM7,51.687A6.049,6.049,0,0,0,5.313,50,6.049,6.049,0,0,0,7,48.313,6.049,6.049,0,0,0,8.687,50,6.049,6.049,0,0,0,7,51.687Z" fill="url(#linear-gradient)"/>
    <path id="Path_308" data-name="Path 308" d="M2,8a4,4,0,0,1,4,4,1,1,0,0,0,2,0,4,4,0,0,1,4-4,1,1,0,0,0,0-2A4,4,0,0,1,8,2,1,1,0,0,0,6,2,4,4,0,0,1,2,6,1,1,0,0,0,2,8ZM7,5.313A6.049,6.049,0,0,0,8.687,7,6.049,6.049,0,0,0,7,8.687,6.049,6.049,0,0,0,5.313,7,6.049,6.049,0,0,0,7,5.313Z" fill="url(#linear-gradient)"/>
  </g>
</svg>
